#!OML:ASF I:\Actors\actors\Patient Classification 2\Patient 1\Session 1\actor1.ASF
:FULLY-SPECIFIED
:DEGREES

511
root -0.673942 18.1509 5.56352 1.42043 -3.07391 -2.8869
lowerback 4.48797 1.48815 0.244552
upperback -2.15747 2.01974 0.355148
thorax -4.75126 1.00005 0.0577262
lowerneck -12.2439 -3.22054 -1.14603
upperneck 19.6783 -4.97943 3.51927
head 8.24275 -2.09755 0.828592
rclavicle -1.20948e-014 0
rhumerus -53.7992 -9.88493 -83.893
rradius 45.5707
rwrist 9.23379
rhand -4.16399 -41.7495
rfingers 7.12502
rthumb 21.5965 -70.5652
lclavicle -1.20948e-014 0
lhumerus -44.0655 0.060942 89.2278
lradius 42.392
lwrist 1.64013
lhand -7.32946 -23.6502
lfingers 7.12502
lthumb 18.5539 5.48494
rfemur 10.3602 5.77012 17.4668
rtibia -8.50308
rfoot -13.4974 -14.406
rtoes 2.82231
lfemur 13.8562 -8.09654 -11.8918
ltibia -11.5308
lfoot -7.64546 19.0126
ltoes -12.5957
512
root -0.675875 18.1529 5.56247 1.48297 -3.01559 -2.86992
lowerback 4.43537 1.45561 0.223537
upperback -2.1879 1.97499 0.357991
thorax -4.75384 0.9786 0.0772132
lowerneck -12.2476 -3.21628 -1.22604
upperneck 19.7535 -4.98323 3.62572
head 8.27375 -2.09346 0.876487
rclavicle -6.90777e-015 -3.97569e-015
rhumerus -53.7523 -9.84159 -83.932
rradius 45.7746
rwrist 9.01874
rhand -3.97591 -41.8757
rfingers 7.12502
rthumb 21.7771 -70.6706
lclavicle -6.90777e-015 -3.97569e-015
lhumerus -43.7789 -0.015727 89.3495
lradius 42.4728
lwrist 1.80964
lhand -7.42118 -23.5873
lfingers 7.12502
lthumb 18.4657 5.55628
rfemur 10.266 5.71046 17.4364
rtibia -8.43207
rfoot -13.5599 -14.3838
rtoes 2.87734
lfemur 13.7529 -8.07008 -11.8821
ltibia -11.5134
lfoot -7.59716 18.9643
ltoes -12.6987
513
root -0.677057 18.1534 5.56297 1.52462 -2.93567 -2.83674
lowerback 4.36029 1.4079 0.182561
upperback -2.19734 1.90874 0.36705
thorax -4.72253 0.94732 0.117003
lowerneck -12.2251 -3.2114 -1.24213
upperneck 19.7842 -4.97593 3.63159
head 8.28035 -2.09051 0.882163
rclavicle -1.05542e-014 -5.56597e-015
rhumerus -53.6612 -9.74113 -83.9815
rradius 45.9676
rwrist 8.69463
rhand -3.8063 -41.8719
rfingers 7.12502
rthumb 21.94 -70.6478
lclavicle -1.05542e-014 -5.56597e-015
lhumerus -43.506 -0.0522569 89.4533
lradius 42.5057
lwrist 1.94818
lhand -7.52974 -23.6909
lfingers 7.12502
lthumb 18.3613 5.46248
rfemur 10.2068 5.63035 17.3889
rtibia -8.36532
rfoot -13.6306 -14.3553
rtoes 3.07816
lfemur 13.6599 -8.11591 -11.897
ltibia -11.477
lfoot -7.6149 18.936
ltoes -12.6025
514
root -0.677376 18.154 5.56456 1.57773 -2.89813 -2.8339
lowerback 4.24776 1.37076 0.192572
upperback -2.20069 1.86 0.384086
thorax -4.66221 0.923338 0.135994
lowerneck -12.2011 -3.19128 -1.21002
upperneck 19.783 -4.93886 3.55787
head 8.27165 -2.07834 0.856776
rclavicle -2.5401e-014 -4.77083e-015
rhumerus -53.5333 -9.595 -84.0388
rradius 46.1091
rwrist 8.41127
rhand -3.57741 -41.7629
rfingers 7.12502
rthumb 22.1597 -70.5128
lclavicle -2.5401e-014 -4.77083e-015
lhumerus -43.2348 -0.0821207 89.5574
lradius 42.5233
lwrist 2.00765
lhand -7.61182 -23.6514
lfingers 7.12502
lthumb 18.2823 5.50945
rfemur 10.1298 5.59111 17.3786
rtibia -8.3029
rfoot -13.668 -14.3237
rtoes 3.19553
lfemur 13.5677 -8.12674 -11.8856
ltibia -11.4385
lfoot -7.61203 18.9175
ltoes -12.665
515
root -0.677967 18.1555 5.56695 1.64159 -2.92381 -2.86115
lowerback 4.11817 1.35916 0.252769
upperback -2.20688 1.8481 0.396533
thorax -4.5935 0.916042 0.11943
lowerneck -12.2021 -3.15871 -1.14866
upperneck 19.8232 -4.89169 3.48077
head 8.28042 -2.05854 0.826006
rclavicle -1.73564e-014 -6.75868e-015
rhumerus -53.4419 -9.49068 -84.0703
rradius 46.2569
rwrist 8.22945
rhand -3.20878 -41.755
rfingers 7.12502
rthumb 22.5136 -70.4625
lclavicle -1.73564e-014 -6.75868e-015
lhumerus -43.0057 -0.123632 89.6472
lradius 42.5762
lwrist 1.9937
lhand -7.6785 -23.5214
lfingers 7.12502
lthumb 18.2182 5.64546
rfemur 10.036 5.61441 17.4005
rtibia -8.24876
rfoot -13.6774 -14.292
rtoes 3.25157
lfemur 13.5001 -8.13013 -11.8505
ltibia -11.4102
lfoot -7.64791 18.9502
ltoes -12.5979
516
root -0.679105 18.1561 5.56978 1.6843 -2.95612 -2.90727
lowerback 4.02365 1.35723 0.335575
upperback -2.21732 1.85025 0.402321
thorax -4.54826 0.914854 0.0812128
lowerneck -12.1897 -3.12119 -1.08583
upperneck 19.8796 -4.84606 3.43791
head 8.29318 -2.03586 0.806362
rclavicle -1.80086e-014 1.98785e-015
rhumerus -53.4055 -9.47469 -84.0607
rradius 46.4837
rwrist 8.1184
rhand -2.83913 -41.9607
rfingers 7.12502
rthumb 22.8683 -70.6248
lclavicle -1.80086e-014 1.98785e-015
lhumerus -42.847 -0.264385 89.7369
lradius 42.6376
lwrist 2.05827
lhand -7.72061 -23.5305
lfingers 7.12502
lthumb 18.1777 5.64016
rfemur 9.98533 5.64581 17.4436
rtibia -8.22257
rfoot -13.681 -14.2598
rtoes 3.36899
lfemur 13.4638 -8.10969 -11.793
ltibia -11.3774
lfoot -7.69211 18.9409
ltoes -12.3955
517
root -0.680933 18.1565 5.57321 1.71733 -2.96365 -2.93133
lowerback 3.93962 1.35273 0.398779
upperback -2.2323 1.84705 0.391556
thorax -4.51375 0.911316 0.0369674
lowerneck -12.1418 -3.09376 -1.04372
upperneck 19.8897 -4.81678 3.43546
head 8.28606 -2.01961 0.80249
rclavicle 1.30887e-014 3.57812e-015
rhumerus -53.3805 -9.52217 -84.0405
rradius 46.7119
rwrist 8.08509
rhand -2.63876 -42.1268
rfingers 7.12502
rthumb 23.0606 -70.767
lclavicle 1.30887e-014 3.57812e-015
lhumerus -42.7469 -0.50747 89.834
lradius 42.7019
lwrist 2.21346
lhand -7.7757 -23.5623
lfingers 7.12502
lthumb 18.1246 5.61321
rfemur 9.97584 5.65175 17.4685
rtibia -8.23522
rfoot -13.7039 -14.2429
rtoes 3.5654
lfemur 13.4171 -8.01921 -11.7488
ltibia -11.3263
lfoot -7.66573 18.8789
ltoes -12.4941
518
root -0.683051 18.1577 5.57759 1.77639 -2.96676 -2.90705
lowerback 3.81816 1.34031 0.392182
upperback -2.25644 1.829 0.382386
thorax -4.46981 0.902614 0.0353923
lowerneck -12.0857 -3.07505 -1.02369
upperneck 19.8641 -4.79341 3.43282
head 8.26606 -2.00853 0.801783
rclavicle -2.18353e-014 2.38542e-015
rhumerus -53.3316 -9.50264 -84.0482
rradius 46.8522
rwrist 8.05792
rhand -2.65871 -42.1548
rfingers 7.12502
rthumb 23.0415 -70.7974
lclavicle -2.18353e-014 2.38542e-015
lhumerus -42.682 -0.691713 89.9138
lradius 42.754
lwrist 2.2743
lhand -7.83124 -23.5117
lfingers 7.12502
lthumb 18.0712 5.66884
rfemur 9.94045 5.65035 17.4435
rtibia -8.24547
rfoot -13.6978 -14.2642
rtoes 3.45014
lfemur 13.345 -7.96104 -11.7581
ltibia -11.2847
lfoot -7.65164 18.8765
ltoes -12.7501
519
root -0.684699 18.1588 5.5821 1.8449 -2.97947 -2.9037
lowerback 3.68591 1.32001 0.400984
upperback -2.28401 1.80202 0.391801
thorax -4.42345 0.889319 0.0452064
lowerneck -12.0462 -3.05883 -1.08708
upperneck 19.8766 -4.77058 3.48909
head 8.26554 -1.99725 0.834034
rclavicle 2.1096e-014 -2.78299e-015
rhumerus -53.2564 -9.39201 -84.0699
rradius 46.9446
rwrist 7.97753
rhand -2.8042 -42.1637
rfingers 7.12502
rthumb 22.9019 -70.8236
lclavicle 2.1096e-014 -2.78299e-015
lhumerus -42.6015 -0.732161 89.9375
lradius 42.7077
lwrist 2.16809
lhand -7.80825 -23.5224
lfingers 7.12502
lthumb 18.0933 5.6561
rfemur 9.88704 5.65754 17.4448
rtibia -8.24492
rfoot -13.6672 -14.2938
rtoes 3.15578
lfemur 13.2722 -7.96102 -11.7491
ltibia -11.2508
lfoot -7.67998 18.8888
ltoes -12.8113
520
root -0.68655 18.1594 5.58621 1.89584 -2.99566 -2.95526
lowerback 3.57016 1.30581 0.464186
upperback -2.29969 1.7866 0.411815
thorax -4.37278 0.880309 0.0343327
lowerneck -12.0235 -3.04675 -1.22488
upperneck 19.924 -4.75969 3.63826
head 8.2843 -1.98716 0.907905
rclavicle -3.11284e-014 -6.55989e-015
rhumerus -53.1397 -9.29026 -84.0661
rradius 46.9823
rwrist 7.88549
rhand -2.90382 -41.9493
rfingers 7.12502
rthumb 22.8063 -70.621
lclavicle -3.11284e-014 -6.55989e-015
lhumerus -42.5026 -0.791132 89.9525
lradius 42.5653
lwrist 2.08797
lhand -7.79653 -23.6301
lfingers 7.12502
lthumb 18.1046 5.5473
rfemur 9.84792 5.66931 17.5114
rtibia -8.24997
rfoot -13.6533 -14.3004
rtoes 3.16116
lfemur 13.2298 -7.96188 -11.6789
ltibia -11.2345
lfoot -7.69343 18.8771
ltoes -12.7091
521
root -0.689204 18.1599 5.59042 1.92044 -3.01473 -2.98692
lowerback 3.48437 1.30145 0.477924
upperback -2.31393 1.78166 0.429973
thorax -4.33907 0.87789 0.0476842
lowerneck -12.0061 -3.02678 -1.25943
upperneck 19.9699 -4.74006 3.69852
head 8.29845 -1.97401 0.935997
rclavicle -2.00648e-014 5.96354e-016
rhumerus -52.9915 -9.17114 -84.0817
rradius 46.9275
rwrist 7.67553
rhand -3.11816 -41.5232
rfingers 7.12502
rthumb 22.6006 -70.2201
lclavicle -2.00648e-014 5.96354e-016
lhumerus -42.4667 -0.947244 89.9961
lradius 42.448
lwrist 2.09607
lhand -7.8415 -23.7288
lfingers 7.12502
lthumb 18.0613 5.45264
rfemur 9.81167 5.68572 17.5544
rtibia -8.20707
rfoot -13.6702 -14.2891
rtoes 3.19084
lfemur 13.275 -7.95493 -11.635
ltibia -11.3278
lfoot -7.66727 18.8957
ltoes -12.6262
522
root -0.683327 18.1583 5.59133 1.82904 -2.98319 -2.96491
lowerback 3.55998 1.27593 0.566226
upperback -2.31566 1.75255 0.417845
thorax -4.38079 0.860378 -0.0140384
lowerneck -11.9859 -2.99119 -1.17646
upperneck 20.0356 -4.69452 3.62271
head 8.31163 -1.95311 0.90212
rclavicle 1.35857e-014 3.77691e-015
rhumerus -52.8182 -8.94237 -84.1519
rradius 46.7919
rwrist 7.4194
rhand -3.36106 -41.3846
rfingers 7.12502
rthumb 22.3674 -70.1098
lclavicle 1.35857e-014 3.77691e-015
lhumerus -42.4954 -1.0436 90.0312
lradius 42.3718
lwrist 2.04473
lhand -7.79641 -23.8175
lfingers 7.12502
lthumb 18.1047 5.3599
rfemur 9.87093 5.66118 17.5232
rtibia -8.13425
rfoot -13.7081 -14.2715
rtoes 3.1529
lfemur 13.4295 -8.0847 -11.7085
ltibia -11.4429
lfoot -7.64515 19.0001
ltoes -12.5202
523
root -0.659869 18.1535 5.58481 1.5492 -2.83848 -2.95132
lowerback 3.92272 1.2108 0.968357
upperback -2.27492 1.68922 0.347951
thorax -4.531 0.814656 -0.314728
lowerneck -11.9378 -2.97492 -1.13949
upperneck 20.0717 -4.67533 3.59513
head 8.31287 -1.94412 0.889522
rclavicle 7.01958e-016 -1.19271e-015
rhumerus -52.626 -8.73981 -84.1863
rradius 46.6386
rwrist 7.33015
rhand -3.18719 -41.6814
rfingers 7.12502
rthumb 22.5343 -70.3864
lclavicle 7.01958e-016 -1.19271e-015
lhumerus -42.4778 -1.05168 90.0399
lradius 42.2026
lwrist 1.86516
lhand -7.62965 -23.7765
lfingers 7.12502
lthumb 18.2652 5.38591
rfemur 10.111 5.54154 17.4749
rtibia -8.0973
rfoot -13.6886 -14.2816
rtoes 3.17508
lfemur 13.7151 -8.49768 -11.8791
ltibia -11.5369
lfoot -7.62581 19.2495
ltoes -12.3727
524
root -0.660998 18.1538 5.58966 1.56771 -2.80412 -2.94376
lowerback 3.77138 1.1917 0.976436
upperback -2.26021 1.66223 0.355251
thorax -4.43005 0.801858 -0.30584
lowerneck -11.8473 -2.97666 -1.18647
upperneck 20.0322 -4.68215 3.66755
head 8.28627 -1.94555 0.922092
rclavicle -5.93869e-015 -2.98177e-015
rhumerus -52.4522 -8.66114 -84.1679
rradius 46.5307
rwrist 7.31047
rhand -2.97487 -41.8928
rfingers 7.12502
rthumb 22.7381 -70.573
lclavicle -5.93869e-015 -2.98177e-015
lhumerus -42.3777 -0.974853 90.0006
lradius 41.8551
lwrist 1.53725
lhand -7.55187 -23.6834
lfingers 7.12502
lthumb 18.34 5.47207
rfemur 10.1118 5.50591 17.4678
rtibia -8.0932
rfoot -13.6944 -14.2606
rtoes 3.27919
lfemur 13.7332 -8.46972 -11.8777
ltibia -11.6046
lfoot -7.53703 19.2215
ltoes -12.4812
